<svg viewBox="0 0 300 174.8404" width="5000px" height="2914.006551106771px" xmlns="http://www.w3.org/2000/svg" xmlns:xlink="http://www.w3.org/1999/xlink" preserveAspectRatio="none"><defs></defs><style>.aD6z1nYkhcolor {fill:#FFFFFF;fill-opacity:1;}.aLgOaV3zRcolors-0 {fill:#FFFFFF;fill-opacity:1;}.text {fill:#FFFFFF;fill-opacity:1;}</style><g opacity="0.2" transform="rotate(0 60 0)">
<svg width="180" height="174.8404" x="60" y="0" version="1.1" preserveAspectRatio="none" viewBox="7.699998378753662 9.399999618530272 84.60001373291016 82.17499542236328">
  <g transform="matrix(1 0 0 1 0 0)" class="aLgOaV3zRcolors-0"><path d="M7.8,54.6c0.7,0,1.5,0,2.2,0c1.3,0,2.6,0,4,0c1.9,0,3.9-0.1,5.8-0.1c1.6,0,3.2-0.1,4.8-0.1c1.7,0,3.5-0.1,5.2-0.1  c1.7,0,3.4-0.1,5.1-0.1c1.9,0,3.9-0.1,5.8-0.1c2,0,4.1-0.1,6.1-0.1c0.5,0,0.9,0,1.4,0c-0.9,0-1.9,0-2.8,0c-2.6,0-5.2-0.1-7.7-0.1  c-1.8,0-3.6-0.1-5.3-0.1c-1.8,0-3.5-0.1-5.3-0.1c-1.5,0-2.9-0.1-4.4-0.1c-1.7,0-3.3-0.1-5-0.1c-2.1,0-4.3-0.1-6.4-0.1  c-1.2,0-2.4-0.1-3.6-0.1c1.3,0,2.7,0,4,0c1.8,0,3.6-0.1,5.4-0.1c0.7,0,1.5,0,2.2,0c2,0,3.9-0.1,5.9-0.1c0.7,0,1.5,0,2.2,0  c1.6,0,3.2-0.1,4.8-0.1c2.1,0,4.3-0.1,6.4-0.1c1.9,0,3.7-0.1,5.6-0.1c0.8,0,1.5,0,2.3-0.1c-0.1,0-0.3,0-0.4,0c-0.9,0-1.7,0-2.6,0  c-1.8,0-3.7-0.1-5.5-0.1c-1.6,0-3.3,0-4.9-0.1c-1.9,0-3.8-0.1-5.7-0.1c-1.7,0-3.4-0.1-5.1-0.1c-1.6,0-3.2-0.1-4.7-0.1  c-1.6,0-3.2,0-4.8-0.1c-1.7,0-3.4-0.1-5.1-0.1c0.7,0,1.4,0,2.1,0c1.4,0,2.7,0,4.1,0c1.9,0,3.8-0.1,5.7-0.1c1.6,0,3.2-0.1,4.8-0.1  c1.7,0,3.4-0.1,5.1-0.1c1.7,0,3.3-0.1,5-0.1c2,0,4.1-0.1,6.1-0.1c1.6,0,3.3,0,4.9-0.1c0.3,0,0.6,0,1,0c-0.7,0-1.3,0-2-0.1  c-1.8,0-3.7-0.1-5.5-0.1c-1.2,0-2.4,0-3.6-0.1c-1.1,0-2.2,0-3.4,0c-1.5,0-3-0.1-4.5-0.1c-1.5,0-3,0-4.5-0.1c-2.1,0-4.1-0.1-6.2-0.1  c-2,0-4-0.1-6-0.1c-1,0-2-0.1-3-0.1c0.6,0,1.1,0,1.7,0c1.5,0,3,0,4.6,0c1.7,0,3.3-0.1,5-0.1c1.6,0,3.2-0.1,4.8-0.1  c1.8,0,3.6-0.1,5.5-0.1c1.5,0,2.9-0.1,4.4-0.1c1.6,0,3.3-0.1,4.9-0.1c2.5,0,5.1-0.1,7.6-0.1c0.1,0,0.1,0,0.2,0c-0.6,0-1.2,0-1.8,0  c-1.9,0-3.7-0.1-5.6-0.1c-1.1,0-2.2,0-3.4-0.1c-1.1,0-2.3,0-3.4,0c-1.8,0-3.7-0.1-5.5-0.1c-1.4,0-2.8,0-4.1-0.1  c-1.6,0-3.3-0.1-4.9-0.1c-1.5,0-2.9-0.1-4.4-0.1c-1.8,0-3.6-0.1-5.4-0.1c0.6,0,1.2,0,1.8,0c1.4,0,2.8,0,4.2,0c1.6,0,3.2-0.1,4.8-0.1  c1.5,0,3.1,0,4.6-0.1c1.4,0,2.7-0.1,4.1-0.1c2.5,0,4.9-0.1,7.4-0.1c1.8,0,3.6-0.1,5.5-0.1c2.2,0,4.5-0.1,6.7-0.1c0.1,0,0.2,0,0.3,0  c-1,0-1.9,0-2.9-0.1c-1.5,0-2.9,0-4.4-0.1c-2.2,0-4.4-0.1-6.6-0.1c-2,0-4-0.1-6-0.1c-1.1,0-2.2,0-3.4-0.1c-1.6,0-3.1-0.1-4.7-0.1  c-0.7,0-1.5,0-2.2,0c-1.7,0-3.5,0-5.2-0.1c-1.4,0-2.7-0.1-4.1-0.1c0.6,0,1.2,0,1.8,0c1.5,0,3,0,4.5,0c1.6,0,3.2-0.1,4.7-0.1  c1.9,0,3.9-0.1,5.8-0.1c1.7,0,3.5-0.1,5.2-0.1c1.7,0,3.3-0.1,5-0.1c2,0,4-0.1,6-0.1c2.2,0,4.4-0.1,6.6-0.1c2.4,0,4.9,0,7.3,0  c2.8,0,5.6,0.1,8.3,0.1c2.1,0,4.2,0.1,6.3,0.1c1.7,0,3.4,0.1,5.1,0.1c1.7,0,3.4,0.1,5.1,0.1c1.9,0,3.7,0.1,5.6,0.1  c2.3,0,4.5,0.1,6.8,0.1c0,0,0.1,0,0.2,0c-1.1,0-2,0.1-3,0.1c-1.7,0-3.5,0-5.2,0.1c-1.8,0-3.7,0.1-5.5,0.1c-1.5,0-3,0.1-4.6,0.1  c-1.4,0-2.9,0.1-4.3,0.1c-1.4,0-2.9,0.1-4.3,0.1c-1.2,0-2.4,0-3.6,0.1c-0.7,0-1.4,0-2.1,0c-2.3,0-4.5,0.1-6.8,0.1c1.5,0,2.9,0,4.4,0  c1.7,0,3.5,0.1,5.2,0.1c2.1,0,4.2,0.1,6.3,0.1c1.8,0,3.6,0.1,5.3,0.1c1.9,0,3.7,0.1,5.6,0.1c1.5,0,3.1,0.1,4.6,0.1  c2.2,0,4.3,0.1,6.5,0.1c0.5,0,1,0,1.5,0c-1,0-2,0.1-3,0.1c-1.7,0-3.4,0-5.2,0.1c-1.7,0-3.5,0.1-5.2,0.1c-1.8,0-3.6,0.1-5.4,0.1  c-1.5,0-3.1,0.1-4.6,0.1c-1.7,0-3.4,0.1-5.1,0.1c-2,0-4,0.1-6,0.1c-1.4,0-2.8,0.1-4.2,0.1c1.2,0,2.5,0,3.7,0c1.3,0,2.6,0,3.8,0.1  c1.2,0,2.3,0,3.5,0.1c1.5,0,3,0.1,4.6,0.1c1.9,0,3.7,0.1,5.6,0.1c1.8,0,3.6,0.1,5.3,0.1c1.7,0,3.5,0.1,5.2,0.1  c2.4,0,4.7,0.1,7.1,0.1c-0.2,0-0.5,0-0.7,0c-2,0-4,0.1-6,0.1c-1.5,0-3,0.1-4.6,0.1c-2,0-4,0.1-6.1,0.1c-1.8,0-3.6,0.1-5.4,0.1  c-1.9,0-3.8,0.1-5.7,0.1c-1.7,0-3.3,0.1-5,0.1c-1.5,0-3,0.1-4.5,0.1c-0.2,0-0.3,0-0.5,0c1,0,2.1,0,3.1,0c1.9,0,3.8,0.1,5.7,0.1  c0.5,0,1,0,1.5,0c1.5,0,3.1,0,4.6,0.1c1.7,0,3.5,0.1,5.2,0.1c1.8,0,3.7,0.1,5.5,0.1c1.5,0,3,0.1,4.6,0.1c2.2,0,4.5,0.1,6.7,0.1  c0.5,0,1,0,1.5,0c-0.7,0-1.4,0-2,0.1c-1.3,0-2.7,0-4,0.1c-1.2,0-2.3,0-3.5,0.1c-1.2,0-2.3,0-3.5,0.1c-1.6,0-3.2,0.1-4.7,0.1  c-1.4,0-2.9,0.1-4.3,0.1c-1.9,0-3.8,0.1-5.7,0.1c-1.7,0-3.4,0-5.1,0.1c-1.6,0-3.3,0.1-4.9,0.1c-0.4,0-0.9,0-1.3,0c1.2,0,2.4,0,3.6,0  c1.3,0,2.7,0,4,0.1c1.3,0,2.5,0,3.8,0.1c1.5,0,3.1,0.1,4.6,0.1c1.5,0,2.9,0.1,4.4,0.1c2.1,0,4.3,0.1,6.4,0.1c1.9,0,3.8,0.1,5.7,0.1  c1.7,0,3.4,0,5.1,0.1c0.5,0,1,0,1.5,0.1c-0.6,0-1.3,0-1.9,0.1c-2,0-4.1,0.1-6.1,0.1c-1.9,0-3.7,0.1-5.6,0.1c-1.7,0-3.3,0.1-5,0.1  c-1.8,0-3.6,0.1-5.5,0.1c-1,0-2,0-3.1,0c-1.3,0-2.5,0.1-3.8,0.1c-1,0-2,0-3.1,0c-2.1,0-4.3,0.1-6.4,0.1c-0.1,0-0.2,0-0.3,0  c1.5,0,3.1,0,4.6,0c1.5,0,3.1,0,4.6,0.1c1,0,2.1,0,3.1,0c1.7,0,3.4,0.1,5.2,0.1c1.8,0,3.7,0.1,5.5,0.1c1.7,0,3.4,0.1,5.2,0.1  c1.8,0,3.6,0.1,5.4,0.1c2.4,0,4.7,0.1,7.1,0.1c-1.6,0-3.2,0.1-4.8,0.1c-1.7,0-3.5,0.1-5.2,0.1c-1.1,0-2.2,0-3.3,0  c-1.5,0-3,0.1-4.5,0.1c-1.9,0-3.9,0.1-5.8,0.1c-1.6,0-3.2,0.1-4.8,0.1c-1.9,0-3.7,0.1-5.6,0.1c-2.3,0-4.6,0.1-6.8,0.1  c-2.1,0-4.3,0-6.4,0c-2,0-4.1-0.1-6.1-0.1c-1.8,0-3.6-0.1-5.3-0.1c-1.7,0-3.3-0.1-5-0.1c-1.9,0-3.8-0.1-5.7-0.1  c-1.8,0-3.7-0.1-5.5-0.1c-1.5,0-3,0-4.5-0.1C11,54.7,9.4,54.7,7.8,54.6C7.8,54.6,7.8,54.6,7.8,54.6z M48.7,54  C48.7,54,48.7,54,48.7,54c0.1,0,0.1,0,0.2,0c0,0,0,0,0,0C48.9,54,48.8,54,48.7,54z M50.4,54L50.4,54L50.4,54L50.4,54z M47.7,48.5  L47.7,48.5L47.7,48.5L47.7,48.5z"></path><path d="M8.1,46.4c0.7,0,1.4,0,2.1,0c2,0,4-0.1,6.1-0.1c1,0,2.1,0,3.1,0c1.6,0,3.1-0.1,4.7-0.1c1.9,0,3.7-0.1,5.6-0.1  c1.5,0,3-0.1,4.5-0.1c1.6,0,3.2-0.1,4.8-0.1c1.5,0,2.9,0,4.4-0.1c2.1,0,4.3,0,6.4,0c2.6,0,5.2,0,7.8,0c2.1,0,4.2,0.1,6.2,0.1  c1.8,0,3.6,0.1,5.3,0.1c1.7,0,3.4,0.1,5.1,0.1c1.7,0,3.3,0.1,5,0.1c1.9,0,3.8,0.1,5.6,0.1c2.3,0,4.6,0.1,6.8,0.1c0,0,0.1,0,0.1,0  c-1.6,0-3.2,0.1-4.8,0.1c-1.8,0-3.6,0.1-5.4,0.1c-1,0-2.1,0-3.1,0c-1.5,0-2.9,0.1-4.4,0.1c-1.9,0-3.8,0.1-5.7,0.1  c-1.6,0-3.2,0.1-4.7,0.1c-1.7,0-3.4,0.1-5.1,0.1c-1.8,0-3.7,0.1-5.5,0.1c-2.3,0-4.7,0-7,0c-2.3,0-4.6-0.1-7-0.1  c-2.2,0-4.4-0.1-6.6-0.1c-3-0.1-5.9-0.1-8.9-0.2c-2.1,0-4.3-0.1-6.4-0.1c-2.1,0-4.3-0.1-6.4-0.1C9.9,46.5,9,46.4,8.1,46.4  C8.1,46.4,8.1,46.4,8.1,46.4z"></path><path d="M8.2,56c1.9,0,3.7,0,5.6-0.1c1.8,0,3.6-0.1,5.3-0.1c1.9,0,3.8-0.1,5.7-0.1c1.8,0,3.5-0.1,5.3-0.1c1.6,0,3.2-0.1,4.8-0.1  c1.8,0,3.6-0.1,5.4-0.1c1.7,0,3.5-0.1,5.2-0.1c2.5,0,5,0,7.6,0c1.6,0,3.1,0,4.7,0c2,0,4,0.1,6.1,0.1c1.8,0,3.6,0.1,5.3,0.1  c1.7,0,3.3,0.1,5,0.1c1.7,0,3.5,0.1,5.2,0.1c1.8,0,3.6,0.1,5.4,0.1c2.4,0,4.7,0.1,7.1,0.1c0,0,0.1,0,0.2,0c-0.7,0-1.4,0-2,0.1  c-1.6,0-3.3,0.1-4.9,0.1c-1.7,0-3.4,0.1-5.1,0.1c-0.6,0-1.3,0-1.9,0c-1.4,0-2.9,0.1-4.3,0.1c-1.4,0-2.8,0.1-4.2,0.1  c-1.1,0-2.2,0-3.3,0.1c-0.9,0-1.9,0-2.8,0c-2.9,0-5.9,0.1-8.8,0.1c-2.4,0-4.9,0-7.3,0c-2.6,0-5.2-0.1-7.8-0.1c-1.7,0-3.5,0-5.2-0.1  c-1.4,0-2.8-0.1-4.2-0.1c-2,0-4.1-0.1-6.1-0.1c-2.3,0-4.6-0.1-6.9-0.1c-1.5,0-2.9,0-4.4-0.1C11.2,56.1,9.7,56,8.2,56  C8.2,56,8.2,56,8.2,56z"></path><path d="M8.4,45c1.2,0,2.5,0,3.7,0c1.9,0,3.7-0.1,5.6-0.1c2.5,0,5-0.1,7.4-0.1c1.8,0,3.5-0.1,5.3-0.1c1.7,0,3.5-0.1,5.2-0.1  c2.2,0,4.5,0,6.7-0.1c4.1-0.1,8.2-0.1,12.3,0c2.5,0,5,0.1,7.4,0.1c2.3,0,4.6,0.1,6.9,0.1c1.7,0,3.4,0.1,5.1,0.1  c1.7,0,3.5,0.1,5.2,0.1c1.9,0,3.7,0.1,5.6,0.1c2.3,0,4.6,0.1,7,0.1c-0.3,0-0.6,0-0.9,0c-2,0.1-3.9,0.1-5.9,0.1c-1,0-2.1,0-3.1,0.1  c-1.1,0-2.2,0-3.2,0.1c-1.6,0-3.2,0.1-4.8,0.1c-1.9,0-3.9,0.1-5.8,0.1c-1.9,0-3.7,0.1-5.6,0.1c-2.5,0-5,0.1-7.5,0.1  c-3,0.1-6,0-8.9,0c-2.5,0-5-0.1-7.6-0.1c-1.8,0-3.7-0.1-5.5-0.1c-1.9,0-3.8-0.1-5.7-0.1c-0.8,0-1.6,0-2.5,0c-1.7,0-3.3-0.1-5-0.1  c-2.3,0-4.6-0.1-7-0.1C11.3,45.1,9.8,45.1,8.4,45C8.4,45,8.4,45,8.4,45z"></path><path d="M91.7,57.3c-0.6,0-1.3,0-1.9,0.1c-2.2,0-4.3,0.1-6.5,0.1c-1.9,0-3.7,0.1-5.6,0.1c-1.9,0-3.7,0.1-5.6,0.1  c-1.6,0-3.2,0.1-4.8,0.1c-2,0-4,0.1-6,0.1c-2.5,0-5.1,0.1-7.6,0.1c-2.5,0-5,0-7.6,0c-2.3,0-4.6,0-6.8-0.1c-1.9,0-3.9-0.1-5.8-0.1  c-1.7,0-3.4-0.1-5.1-0.1c-1.8,0-3.6-0.1-5.3-0.1c-1.9,0-3.7-0.1-5.6-0.1c-2.1,0-4.2-0.1-6.2-0.1c-1,0-2-0.1-3-0.1c0.8,0,1.6,0,2.4,0  c1.4,0,2.7,0,4.1-0.1c1.1,0,2.2,0,3.3-0.1c1.2,0,2.4,0,3.6-0.1c1.1,0,2.3,0,3.4-0.1c1.4,0,2.8-0.1,4.2-0.1c1.6,0,3.2-0.1,4.8-0.1  c1.7,0,3.4-0.1,5.1-0.1c1,0,1.9,0,2.9,0c2.1,0,4.2-0.1,6.2-0.1c2.4,0,4.8,0,7.2,0c2.6,0,5.1,0.1,7.7,0.1c1.9,0,3.7,0.1,5.6,0.1  c1.6,0,3.3,0.1,4.9,0.1c1.7,0,3.5,0.1,5.2,0.1c1.9,0,3.8,0.1,5.7,0.1C87.1,57.3,89.4,57.3,91.7,57.3C91.7,57.3,91.7,57.3,91.7,57.3z  "></path><path d="M8.4,43.6c1.6,0,3.3,0,4.9,0c2.3,0,4.6-0.1,6.9-0.1c1.8,0,3.6-0.1,5.5-0.1c1.7,0,3.4-0.1,5.1-0.1c1.9,0,3.8-0.1,5.7-0.1  c1.7,0,3.5-0.1,5.2-0.1c2.2,0,4.3-0.1,6.5-0.1c2.2,0,4.5,0,6.7,0c2.6,0,5.2,0.1,7.8,0.1c1.9,0,3.8,0.1,5.7,0.1  c1.9,0,3.7,0.1,5.6,0.1c1.5,0,3.1,0.1,4.6,0.1c1.7,0,3.3,0.1,5,0.1c1.9,0,3.7,0.1,5.6,0.1c0.9,0,1.8,0,2.7,0c-0.7,0-1.4,0-2.1,0.1  c-1.3,0-2.6,0.1-4,0.1c-2.2,0-4.4,0.1-6.7,0.1c-2.3,0-4.6,0.1-6.8,0.1c-1.5,0-3,0-4.5,0.1c-1.7,0-3.3,0.1-5,0.1  c-2,0-4.1,0.1-6.1,0.1c-2.6,0-5.3,0.1-7.9,0.1c-2.8,0-5.6,0-8.3-0.1c-1.9,0-3.9-0.1-5.8-0.1c-1.9,0-3.9-0.1-5.8-0.1  c-1.9,0-3.7-0.1-5.6-0.1c-1.8,0-3.6-0.1-5.4-0.1c-2.1,0-4.1-0.1-6.2-0.1C10.4,43.7,9.4,43.7,8.4,43.6C8.4,43.7,8.4,43.7,8.4,43.6z"></path><path d="M8.5,58.7c1.4,0,2.7,0,4.1,0c1.3,0,2.6,0,4-0.1c1.1,0,2.2,0,3.3-0.1c1.7,0,3.4-0.1,5.1-0.1c1.9,0,3.8-0.1,5.7-0.1  c1.9,0,3.8-0.1,5.7-0.1c1.7,0,3.5-0.1,5.2-0.1c3.2,0,6.3-0.1,9.5-0.1c1.3,0,2.6,0,4,0c2.6,0,5.2,0.1,7.8,0.1c1.7,0,3.5,0.1,5.2,0.1  c2,0,4.1,0.1,6.1,0.1c1.4,0,2.7,0,4.1,0.1c1.7,0,3.5,0.1,5.2,0.1c1.8,0,3.5,0.1,5.3,0.1c0.8,0,1.7,0,2.5,0.1c-0.2,0-0.4,0-0.5,0  c-1.7,0.1-3.5,0.1-5.2,0.1c-2.3,0-4.6,0.1-6.9,0.1c-2.3,0-4.5,0.1-6.8,0.1c-1.8,0-3.7,0.1-5.5,0.1c-1.1,0-2.2,0-3.3,0.1  c-1.8,0-3.6,0.1-5.4,0.1c-2.6,0-5.2,0-7.8,0c-2.4,0-4.7,0-7.1,0c-1.5,0-3.1,0-4.6-0.1c-1.2,0-2.4,0-3.6,0c-1.9,0-3.8-0.1-5.7-0.1  c-1.7,0-3.3-0.1-5-0.1c-1.6,0-3.3-0.1-4.9-0.1c-1.7,0-3.3-0.1-5-0.1c-0.9,0-1.8,0-2.6,0C10.3,58.8,9.4,58.7,8.5,58.7  C8.5,58.7,8.5,58.7,8.5,58.7z"></path><path d="M91.3,42.3c-1.7,0-3.3,0.1-5,0.1c-1.8,0-3.6,0.1-5.4,0.1c-1.1,0-2.1,0-3.2,0c-1.6,0-3.2,0.1-4.8,0.1c-2,0-3.9,0.1-5.9,0.1  c-1.7,0-3.4,0.1-5.2,0.1c-2.1,0-4.1,0.1-6.2,0.1c-2.5,0-5,0-7.6,0c-2.7,0-5.4,0-8.1-0.1c-2,0-4.1-0.1-6.1-0.1  c-1.8,0-3.6-0.1-5.5-0.1c-1.6,0-3.3-0.1-4.9-0.1c-2,0-3.9-0.1-5.9-0.1c-1.8,0-3.5,0-5.3-0.1c-1.3,0-2.5-0.1-3.8-0.1  c0.6,0,1.2,0,1.8,0c1.5,0,3,0,4.5,0c1.7,0,3.4-0.1,5.1-0.1c2,0,4-0.1,6-0.1c1.9,0,3.7-0.1,5.6-0.1c1.9,0,3.9-0.1,5.8-0.1  c3.1,0,6.1-0.1,9.2-0.1c2,0,4,0,6,0c2.6,0,5.1,0,7.7,0.1c2.3,0,4.6,0.1,6.8,0.1c2,0,4,0.1,6.1,0.1c2,0,4.1,0.1,6.1,0.1  c0.9,0,1.8,0,2.7,0c1.5,0,2.9,0,4.4,0.1c1.6,0,3.2,0,4.8,0.1C91.1,42.3,91.2,42.3,91.3,42.3C91.3,42.3,91.3,42.3,91.3,42.3z"></path><path d="M91.1,60.1c-2.2,0-4.3,0.1-6.5,0.1c-1.4,0-2.8,0-4.1,0.1c-1,0-2.1,0-3.1,0c-1.5,0-3.1,0.1-4.6,0.1c-2.2,0-4.5,0.1-6.7,0.1  c-1.9,0-3.9,0.1-5.8,0.1c-2.2,0-4.3,0-6.5,0.1c-3.1,0-6.1,0-9.2,0c-2.3,0-4.5-0.1-6.8-0.1c-0.8,0-1.6,0-2.4,0  c-1.9,0-3.8-0.1-5.7-0.1c-1.2,0-2.4,0-3.6-0.1c-1.7,0-3.4-0.1-5.1-0.1c-0.8,0-1.6,0-2.4,0c-1.7,0-3.4,0-5.1-0.1  c-1.5,0-3.1-0.1-4.6-0.1c1.7,0,3.5,0,5.2-0.1c2.4,0,4.7-0.1,7.1-0.1c1.8,0,3.5-0.1,5.3-0.1c1.8,0,3.5-0.1,5.3-0.1  c1.9,0,3.8-0.1,5.7-0.1c2.9,0,5.9-0.1,8.8-0.1c2,0,4,0,6,0c2.7,0,5.5,0,8.2,0.1c2.4,0,4.8,0.1,7.2,0.1c1.8,0,3.6,0.1,5.4,0.1  c1.8,0,3.5,0.1,5.3,0.1c1.9,0,3.8,0.1,5.7,0.1C86.3,60,88.7,60,91.1,60.1C91.1,60.1,91.1,60.1,91.1,60.1z"></path><path d="M91,40.9c-0.4,0-0.8,0-1.2,0c-1.9,0-3.9,0.1-5.8,0.1c-1.5,0-3.1,0.1-4.6,0.1c-2.6,0-5.1,0.1-7.7,0.1c-1.6,0-3.2,0.1-4.7,0.1  c-1.9,0-3.9,0-5.8,0.1c-5,0.1-10.1,0.1-15.1,0.1c-1.6,0-3.2,0-4.8,0c-2.2,0-4.4-0.1-6.6-0.1c-1.5,0-2.9,0-4.4-0.1  c-2.2,0-4.3-0.1-6.5-0.1c-1.8,0-3.6-0.1-5.5-0.1c-2.1,0-4.3-0.1-6.4-0.1c-1,0-1.9-0.1-2.9-0.1c0.6,0,1.3,0,1.9,0c1.4,0,2.9,0,4.3,0  c1.7,0,3.4-0.1,5.1-0.1c2.1,0,4.1-0.1,6.2-0.1c0.6,0,1.2,0,1.9,0c1.2,0,2.4,0,3.6,0c1.2,0,2.4,0,3.6-0.1c2.8,0,5.7-0.1,8.5-0.1  c2.9,0,5.8,0,8.7,0c2.6,0,5.2,0,7.8,0c2.1,0,4.2,0.1,6.3,0.1c1.9,0,3.8,0.1,5.7,0.1c1.7,0,3.5,0.1,5.2,0.1c2.1,0,4.1,0.1,6.2,0.1  c1.4,0,2.9,0,4.3,0.1C89.2,40.9,90.1,40.9,91,40.9C91,40.9,91,40.9,91,40.9z"></path><path d="M90.6,61.5c-1.7,0-3.3,0.1-5,0.1c-1.8,0-3.6,0.1-5.3,0.1c-1.2,0-2.4,0-3.6,0.1c-1.7,0-3.4,0.1-5.1,0.1c-1.7,0-3.3,0.1-5,0.1  c-1.3,0-2.5,0-3.8,0.1c-1.9,0-3.8,0-5.7,0.1c-3.4,0-6.9,0-10.3,0c-3.1,0-6.2,0-9.3-0.1c-2.4,0-4.9-0.1-7.3-0.1c-1.8,0-3.7,0-5.5-0.1  c-2.1,0-4.1-0.1-6.2-0.1c-1.4,0-2.8,0-4.2-0.1c-1.6,0-3.3-0.1-4.9-0.1c0.6,0,1.1,0,1.7,0c1.5,0,2.9,0,4.4,0c1.7,0,3.4-0.1,5.1-0.1  c2,0,4-0.1,6.1-0.1c1.4,0,2.9,0,4.3-0.1c2.1,0,4.1-0.1,6.2-0.1c2.9,0,5.7-0.1,8.6-0.1c1.6,0,3.2,0,4.8,0c2.8,0,5.7,0,8.5,0  c2.4,0,4.8,0.1,7.2,0.1c2.1,0,4.1,0.1,6.2,0.1c1.9,0,3.7,0.1,5.6,0.1c1.8,0,3.6,0.1,5.5,0.1C85.8,61.4,88.2,61.4,90.6,61.5  C90.6,61.4,90.6,61.5,90.6,61.5z"></path><path d="M9.2,39.5c1.7,0,3.4,0,5.1-0.1c2.4,0,4.8-0.1,7.2-0.1c1.9,0,3.8-0.1,5.7-0.1c1.9,0,3.9-0.1,5.8-0.1c2.2,0,4.4-0.1,6.7-0.1  C44.3,39,49,39,53.6,39c1.8,0,3.6,0,5.4,0c2.4,0,4.8,0.1,7.2,0.1c1.9,0,3.7,0.1,5.6,0.1c2,0,4,0.1,6,0.1c1.9,0,3.7,0.1,5.6,0.1  c2.4,0,4.8,0.1,7.2,0.1c-1.6,0-3.2,0.1-4.8,0.1c-1.3,0-2.6,0-3.9,0c-1.9,0-3.7,0.1-5.6,0.1c-1.9,0-3.9,0.1-5.8,0.1  c-1.9,0-3.7,0.1-5.6,0.1c-1.7,0-3.4,0.1-5.1,0.1c-3.2,0-6.4,0.1-9.7,0.1c-2.5,0-5,0-7.6,0c-1.6,0-3.3,0-4.9-0.1c-1.3,0-2.7,0-4-0.1  c-1.3,0-2.5,0-3.8-0.1c-1.9,0-3.8-0.1-5.7-0.1c-1.7,0-3.5-0.1-5.2-0.1c-2.3,0-4.6-0.1-6.9-0.1C11.2,39.6,10.2,39.6,9.2,39.5  C9.2,39.6,9.2,39.5,9.2,39.5z"></path><path d="M90.4,62.8c-2.5,0-5,0.1-7.4,0.1c-2.4,0-4.7,0.1-7.1,0.1c-1.9,0-3.9,0.1-5.8,0.1c-2.1,0-4.1,0.1-6.2,0.1  c-3.2,0-6.3,0.1-9.5,0.1c-2.4,0-4.7,0-7.1,0c-2.9,0-5.7,0-8.6-0.1c-2.5,0-4.9-0.1-7.4-0.1c-2.1,0-4.1-0.1-6.2-0.1  c-2,0-3.9-0.1-5.9-0.1c-2.2,0-4.4-0.1-6.6-0.1c-1,0-1.9-0.1-2.9-0.1c0.7,0,1.3,0,2,0c1.5,0,3,0,4.5,0c1.9,0,3.8-0.1,5.7-0.1  c1.9,0,3.8-0.1,5.7-0.1c1.8,0,3.6-0.1,5.4-0.1c2.2,0,4.4,0,6.6-0.1c4.5-0.1,9.1-0.1,13.6-0.1c2,0,4,0,6.1,0c2.3,0,4.6,0.1,6.9,0.1  c1.8,0,3.6,0.1,5.4,0.1c1.9,0,3.8,0.1,5.7,0.1c1.9,0,3.7,0.1,5.6,0.1C85.3,62.7,87.9,62.8,90.4,62.8C90.4,62.8,90.4,62.8,90.4,62.8z  "></path><path d="M9.7,38.2c0.8,0,1.5,0,2.3,0c1.4,0,2.7,0,4.1,0c2.1,0,4.1-0.1,6.2-0.1c1.9,0,3.8-0.1,5.7-0.1c2,0,4-0.1,6.1-0.1  c2.6,0,5.2,0,7.7-0.1c4.1-0.1,8.1-0.1,12.2,0c3.1,0,6.3,0.1,9.4,0.1c2.5,0,5.1,0.1,7.6,0.1c1.9,0,3.8,0.1,5.7,0.1  c1.9,0,3.8,0.1,5.7,0.1c2.6,0,5.1,0.1,7.7,0.1c0.1,0,0.1,0,0.2,0c-0.6,0-1.2,0-1.9,0c-2.3,0-4.6,0.1-7,0.1c-1.9,0-3.8,0.1-5.7,0.1  c-2.1,0-4.3,0.1-6.4,0.1c-1.7,0-3.4,0-5.1,0.1c-2.1,0-4.1,0.1-6.2,0.1c-1,0-2,0-3,0c-3,0-6,0-8.9,0c-2.4,0-4.7,0-7.1-0.1  c-2.6,0-5.2-0.1-7.8-0.1c-1.6,0-3.2,0-4.8-0.1c-1.6,0-3.1-0.1-4.7-0.1c-2.5,0-5.1-0.1-7.6-0.1C12.7,38.3,11.2,38.2,9.7,38.2  C9.7,38.2,9.7,38.2,9.7,38.2z"></path><path d="M9.7,64.2c1.5,0,2.9,0,4.4,0c1.5,0,3,0,4.5-0.1c1.2,0,2.4,0,3.6,0c1.7,0,3.3-0.1,5-0.1c1.7,0,3.4-0.1,5.1-0.1  c1.1,0,2.2,0,3.2-0.1c2,0,4,0,6.1-0.1c4,0,8.1-0.1,12.1,0c3.2,0,6.4,0.1,9.6,0.1c2.5,0,5,0.1,7.4,0.1c1.9,0,3.8,0.1,5.7,0.1  c2,0,4.1,0.1,6.1,0.1c2.4,0,4.7,0.1,7.1,0.1c0,0,0.1,0,0.1,0c-0.3,0-0.5,0-0.8,0c-2.1,0.1-4.3,0.1-6.4,0.1c-1.2,0-2.3,0-3.5,0.1  c-1.3,0-2.5,0-3.8,0.1c-1.8,0-3.6,0.1-5.4,0.1c-1.9,0-3.8,0.1-5.7,0.1c-1.6,0-3.3,0.1-4.9,0.1c-0.9,0-1.8,0-2.7,0  c-3.2,0-6.4,0-9.6,0c-2.9,0-5.7,0-8.6-0.1c-2.5,0-4.9-0.1-7.4-0.1c-1.8,0-3.6,0-5.4-0.1c-2,0-4-0.1-6.1-0.1c-2.2,0-4.4-0.1-6.6-0.1  C12.1,64.3,10.9,64.2,9.7,64.2C9.7,64.2,9.7,64.2,9.7,64.2z"></path><path d="M89.7,36.9c-2.2,0-4.4,0.1-6.6,0.1c-1.3,0-2.5,0-3.8,0.1c-1.2,0-2.4,0-3.6,0.1c-1.7,0-3.4,0-5.1,0.1c-2.1,0-4.1,0.1-6.2,0.1  c-4.4,0.1-8.8,0.1-13.1,0.1c-3.2,0-6.5,0-9.7,0c-1,0-2.1,0-3.1,0c-2.3,0-4.6-0.1-6.9-0.1c-1.2,0-2.5,0-3.7-0.1c-1.2,0-2.5,0-3.7-0.1  c-1.2,0-2.5,0-3.7-0.1c-1.9,0-3.9-0.1-5.8-0.1c-1.5,0-3-0.1-4.6-0.1c0.8,0,1.7,0,2.5,0c1.5,0,2.9,0,4.4,0c2,0,4-0.1,6-0.1  c2.1,0,4.1-0.1,6.2-0.1c2.1,0,4.1-0.1,6.2-0.1c3.1,0,6.2-0.1,9.3-0.1c3.1,0,6.2,0,9.3,0c2.8,0,5.6,0,8.3,0.1c2.7,0,5.4,0.1,8.1,0.1  c2,0,4.1,0.1,6.1,0.1c1.9,0,3.9,0.1,5.8,0.1C84.7,36.7,87.2,36.8,89.7,36.9C89.7,36.8,89.7,36.8,89.7,36.9z"></path><path d="M10.5,65.5c0.9,0,1.7,0,2.6,0c1.4,0,2.8,0,4.2,0c1.2,0,2.3,0,3.5-0.1c2.1,0,4.1-0.1,6.2-0.1c1.3,0,2.6,0,3.9-0.1  c1.4,0,2.7,0,4.1,0c2.6,0,5.1-0.1,7.7-0.1c3.9,0,7.9,0,11.8,0c2.6,0,5.2,0,7.7,0.1c2.6,0,5.2,0.1,7.8,0.1c2,0,4,0.1,6,0.1  c2,0,4,0.1,6.1,0.1c2.3,0,4.6,0.1,6.9,0.1c0.1,0,0.2,0,0.2,0c-0.3,0-0.7,0-1,0c-2,0-4,0.1-6,0.1c-1.2,0-2.5,0-3.7,0.1  c-1.5,0-3,0-4.5,0.1c-2.1,0-4.1,0.1-6.2,0.1c-2.5,0-5,0.1-7.5,0.1c-4.9,0.1-9.8,0.1-14.8,0c-1.8,0-3.6,0-5.4,0c-1.9,0-3.9,0-5.8-0.1  c-2.3,0-4.6-0.1-7-0.1c-2.3,0-4.6-0.1-6.9-0.1c-2.4,0-4.9-0.1-7.3-0.1C12.2,65.6,11.3,65.6,10.5,65.5C10.5,65.5,10.5,65.5,10.5,65.5  z"></path><path d="M89.3,35.5c-0.4,0-0.7,0-1.1,0c-2,0-4.1,0.1-6.1,0.1c-1.7,0-3.4,0.1-5.1,0.1c-2.4,0-4.8,0.1-7.2,0.1c-2.5,0-4.9,0.1-7.4,0.1  c-4.5,0-9.1,0.1-13.6,0.1c-2.9,0-5.9,0-8.8,0c-2.3,0-4.7-0.1-7-0.1c-2,0-4-0.1-6-0.1c-1.8,0-3.6-0.1-5.5-0.1c-1.9,0-3.7,0-5.6-0.1  c-1.8,0-3.6-0.1-5.4-0.1c0.8,0,1.6,0,2.4,0c1.5,0,3.1,0,4.6,0c2.1,0,4.2-0.1,6.2-0.1c2,0,4.1-0.1,6.1-0.1c2.3,0,4.6-0.1,6.9-0.1  c3,0,6-0.1,8.9-0.1c2.9,0,5.9,0,8.8,0c1.7,0,3.5,0,5.2,0c2.9,0,5.7,0.1,8.6,0.1c2,0,3.9,0.1,5.9,0.1c2.4,0,4.8,0.1,7.2,0.1  c2.6,0,5.1,0.1,7.7,0.1C89.1,35.4,89.2,35.4,89.3,35.5z"></path><path d="M89,66.9c-0.5,0-1.1,0-1.6,0.1c-1.9,0-3.8,0.1-5.7,0.1c-1.4,0-2.8,0-4.2,0.1c-1.2,0-2.4,0-3.6,0c-2,0-4,0.1-6,0.1  c-1.9,0-3.8,0.1-5.7,0.1c-2.3,0-4.6,0-7,0.1c-2.8,0-5.6,0-8.3,0c-3.2,0-6.4,0-9.6-0.1c-2.7,0-5.4-0.1-8.2-0.1  c-2.3,0-4.6-0.1-6.9-0.1c-2.6,0-5.2-0.1-7.8-0.1c-1.1,0-2.1-0.1-3.2-0.1c0.6,0,1.2,0,1.8,0c1.5,0,3.1,0,4.6,0c1.8,0,3.6-0.1,5.5-0.1  c1.8,0,3.7-0.1,5.5-0.1c1.5,0,2.9-0.1,4.4-0.1c1,0,2.1,0,3.1,0c2.8,0,5.5-0.1,8.3-0.1c3.4,0,6.9,0,10.3,0c2.4,0,4.9,0,7.3,0  c2,0,4,0.1,6.1,0.1c1.8,0,3.6,0,5.4,0.1c1.8,0,3.6,0.1,5.4,0.1c2.8,0,5.7,0.1,8.5,0.1C87.9,66.9,88.4,66.9,89,66.9  C89,66.9,89,66.9,89,66.9z"></path><path d="M11.3,34.1c1.1,0,2.3,0,3.4,0c1.2,0,2.3,0,3.5,0c2.1,0,4.3-0.1,6.4-0.1c2.1,0,4.2-0.1,6.3-0.1c2.5,0,5.1-0.1,7.6-0.1  c5-0.1,9.9-0.1,14.9-0.1c2.4,0,4.7,0,7.1,0c1.8,0,3.6,0,5.4,0.1c1.5,0,3,0.1,4.6,0.1c1.3,0,2.6,0,3.9,0c2.3,0,4.6,0.1,6.9,0.1  c1.6,0,3.2,0,4.7,0.1c0.8,0,1.7,0,2.5,0.1c-0.4,0-0.7,0-1.1,0c-2.6,0-5.3,0.1-7.9,0.1c-2.1,0-4.2,0.1-6.2,0.1c-2.3,0-4.6,0.1-7,0.1  c-2.4,0-4.8,0-7.2,0.1c-4.6,0.1-9.2,0.1-13.8,0c-2.9,0-5.9-0.1-8.8-0.1c-2.2,0-4.4-0.1-6.6-0.1c-0.7,0-1.5,0-2.2,0  c-2.2,0-4.3-0.1-6.5-0.1c-2.2,0-4.3-0.1-6.5-0.1C13.5,34.2,12.4,34.1,11.3,34.1C11.3,34.1,11.3,34.1,11.3,34.1z"></path><path d="M88.3,68.3c-2.5,0-4.9,0.1-7.4,0.1c-1.4,0-2.8,0-4.2,0.1c-0.6,0-1.2,0-1.9,0c-2.8,0-5.7,0.1-8.5,0.1c-2.8,0-5.6,0.1-8.4,0.1  c-3.3,0-6.5,0.1-9.8,0c-3.1,0-6.1,0-9.2-0.1c-1.2,0-2.3,0-3.5,0c-2.3,0-4.6,0-6.8-0.1c-2.3,0-4.6-0.1-7-0.1c-1.5,0-2.9,0-4.4-0.1  c-2,0-4-0.1-6-0.1c0.8,0,1.6,0,2.4,0c1.5,0,2.9,0,4.4,0c1.9,0,3.8-0.1,5.7-0.1c2.4,0,4.9-0.1,7.3-0.1c0.9,0,1.9,0,2.8-0.1  c1.3,0,2.7,0,4,0c5-0.1,10.1-0.1,15.1-0.1c2.4,0,4.7,0,7.1,0c2.5,0,5.1,0.1,7.6,0.1c2.2,0,4.3,0.1,6.5,0.1c2.1,0,4.2,0.1,6.3,0.1  C83.1,68.2,85.7,68.2,88.3,68.3C88.3,68.3,88.3,68.3,88.3,68.3z"></path><path d="M11.8,32.7c0.9,0,1.7,0,2.6,0c1.5,0,3,0,4.5,0c2.1,0,4.3-0.1,6.4-0.1c2.4,0,4.8-0.1,7.2-0.1c1.6,0,3.2,0,4.8-0.1  c2.7,0,5.5-0.1,8.2-0.1c2.9,0,5.7,0,8.6,0c1.2,0,2.5,0,3.7,0c2.9,0,5.7,0.1,8.6,0.1c2.3,0,4.6,0.1,6.9,0.1c2.2,0,4.3,0.1,6.5,0.1  c2.6,0,5.2,0.1,7.7,0.1c0,0,0.1,0,0.1,0c-0.4,0-0.8,0-1.2,0c-1.9,0-3.7,0.1-5.6,0.1c-1.4,0-2.7,0-4.1,0.1c-0.8,0-1.6,0-2.4,0  c-2.1,0-4.1,0.1-6.2,0.1c-1,0-2.1,0-3.1,0c-2.3,0-4.6,0.1-7,0.1c-2.3,0-4.6,0-7,0c-2,0-4,0-6.1,0c-2.7,0-5.4,0-8.1-0.1  c-2.9,0-5.8-0.1-8.7-0.1c-2.1,0-4.2-0.1-6.3-0.1c-2.3,0-4.6-0.1-6.9-0.1C14.1,32.8,12.9,32.8,11.8,32.7  C11.8,32.7,11.8,32.7,11.8,32.7z"></path><path d="M87.7,69.7c-0.5,0-1.1,0-1.6,0c-1.9,0-3.7,0.1-5.6,0.1c-1.6,0-3.3,0-4.9,0.1c-1.2,0-2.5,0-3.7,0c-2.4,0-4.9,0.1-7.3,0.1  c-4,0-7.9,0.1-11.9,0.1c-3.6,0-7.2,0-10.8,0c-1.3,0-2.6,0-3.9,0c-2.2,0-4.5,0-6.7-0.1c-2.7,0-5.5-0.1-8.2-0.1  c-2.6,0-5.2-0.1-7.8-0.1c-1,0-2-0.1-3-0.1c0.7,0,1.3,0,2,0c1.6,0,3.2,0,4.8,0c2,0,4-0.1,6.1-0.1c2.4,0,4.9-0.1,7.3-0.1  c2.4,0,4.8-0.1,7.2-0.1c3.7,0,7.3,0,11-0.1c2.4,0,4.7,0,7.1,0c2.2,0,4.3,0,6.5,0.1c2.7,0,5.4,0.1,8.1,0.1c2.4,0,4.8,0.1,7.2,0.1  C82.2,69.6,84.9,69.6,87.7,69.7C87.6,69.6,87.6,69.6,87.7,69.7z"></path><path d="M87.6,31.4c-2.8,0-5.6,0.1-8.3,0.1c-2.4,0-4.9,0.1-7.3,0.1c-2,0-4,0.1-6,0.1c-3.7,0-7.4,0.1-11.1,0.1c-2.9,0-5.7,0-8.6,0  c-1.9,0-3.8,0-5.7,0c-2,0-4,0-6-0.1c-1.6,0-3.2,0-4.8,0c-1.9,0-3.9-0.1-5.8-0.1c-2.7,0-5.3-0.1-8-0.1c-1.2,0-2.3-0.1-3.5-0.1  c1.2,0,2.3,0,3.5,0c2,0,4-0.1,6-0.1c1.4,0,2.7,0,4.1,0c2.2,0,4.3-0.1,6.5-0.1c2.3,0,4.5-0.1,6.8-0.1c2,0,3.9,0,5.9,0  c2.9,0,5.8,0,8.7,0c3.6,0,7.3,0,10.9,0.1c2.5,0,5,0.1,7.5,0.1c2.3,0,4.5,0.1,6.8,0.1c2.7,0,5.4,0.1,8.1,0.1  C87.4,31.3,87.5,31.3,87.6,31.4C87.6,31.3,87.6,31.4,87.6,31.4z"></path><path d="M87,71.1c-2.7,0-5.4,0.1-8.1,0.1c-1.3,0-2.6,0-3.8,0.1c-1.5,0-3,0-4.5,0.1c-1.6,0-3.1,0-4.7,0.1c-1.8,0-3.6,0-5.4,0  c-4.4,0-8.7,0-13.1,0.1c-2.2,0-4.4,0-6.6,0c-3.3,0-6.5-0.1-9.8-0.1c-2.3,0-4.6-0.1-6.9-0.1c-2.6,0-5.2-0.1-7.8-0.1c-1,0-2-0.1-3-0.1  c0.8,0,1.6,0,2.4,0c1.5,0,3.1,0,4.6,0c2.2,0,4.5-0.1,6.7-0.1c2.5,0,5.1-0.1,7.6-0.1c3.5,0,7-0.1,10.6-0.1c2.1,0,4.3,0,6.4,0  c3.4,0,6.7,0,10.1,0.1c1,0,2,0,3,0c2.6,0,5.3,0.1,7.9,0.1c2,0,4.1,0.1,6.1,0.1C81.3,70.9,84.1,71,87,71.1C87,71,87,71,87,71.1z"></path><path d="M13.2,30c1.7,0,3.3,0,5,0c1.6,0,3.2,0,4.8-0.1c0.7,0,1.3,0,2,0c1,0,1.9,0,2.9,0c2,0,4-0.1,6.1-0.1c3.1,0,6.2-0.1,9.3-0.1  c5.3,0,10.5,0,15.8,0c1.4,0,2.8,0,4.1,0c2,0,4,0,6,0.1c2.7,0,5.5,0.1,8.2,0.1c2.3,0,4.6,0,6.8,0.1c0.7,0,1.5,0,2.2,0.1  c-0.3,0-0.6,0-0.9,0c-2.1,0.1-4.3,0.1-6.4,0.1c-1.5,0-3.1,0-4.6,0.1c-1.3,0-2.6,0-3.9,0c-2.4,0-4.8,0.1-7.2,0.1  c-3,0-5.9,0.1-8.9,0.1c-3,0-5.9,0-8.9,0c-2.1,0-4.2,0-6.3,0c-2.8,0-5.5,0-8.3-0.1c-2.3,0-4.7-0.1-7-0.1c-2.5,0-5-0.1-7.5-0.1  C15.4,30.1,14.3,30,13.2,30C13.2,30,13.2,30,13.2,30z"></path><path d="M13.8,72.4c1.1,0,2.2,0,3.3,0c2.2,0,4.5-0.1,6.7-0.1c1.4,0,2.9,0,4.3,0c2.7,0,5.4-0.1,8.1-0.1c3.4,0,6.7-0.1,10.1-0.1  c3.7,0,7.5,0,11.2,0c1.8,0,3.6,0,5.4,0c2.1,0,4.2,0,6.2,0.1c2.3,0,4.6,0.1,6.8,0.1c2.7,0,5.5,0.1,8.2,0.1c0.7,0,1.3,0,2,0  c-0.4,0-0.8,0-1.1,0c-1.9,0-3.8,0.1-5.7,0.1c-1.1,0-2.3,0-3.4,0c-2.2,0-4.4,0.1-6.6,0.1c-2.9,0-5.8,0.1-8.7,0.1c-1.2,0-2.4,0-3.6,0  c-3.5,0-7,0-10.5,0c-1.1,0-2.1,0-3.2,0c-3,0-6,0-8.9-0.1c-3.2,0-6.3-0.1-9.5-0.1c-2.6,0-5.2-0.1-7.8-0.1  C16.1,72.5,15,72.4,13.8,72.4C13.8,72.4,13.8,72.4,13.8,72.4z"></path><path d="M85.6,28.6c-0.9,0-1.7,0-2.6,0.1c-1.5,0-2.9,0-4.4,0.1c-1.6,0-3.2,0-4.7,0.1c-1.6,0-3.2,0-4.7,0.1c-2.1,0-4.1,0-6.2,0.1  c-1.7,0-3.5,0-5.2,0c-3.9,0-7.9,0-11.8,0c-3.3,0-6.7-0.1-10-0.1c-1,0-1.9,0-2.9,0c-1.5,0-3,0-4.5-0.1c-0.8,0-1.6,0-2.5,0  c-2.8,0-5.6-0.1-8.3-0.1c-1.3,0-2.6-0.1-3.8-0.1c0.9,0,1.8,0,2.7,0c1.7,0,3.3,0,5,0c2,0,3.9,0,5.9-0.1c2.9,0,5.9-0.1,8.8-0.1  c2.6,0,5.2-0.1,7.8-0.1c3.5,0,7.1,0,10.6,0c2.9,0,5.8,0,8.8,0.1c2,0,4,0,6,0.1c2.6,0,5.2,0.1,7.8,0.1c2.1,0,4.3,0,6.4,0.1  C84.3,28.6,85,28.6,85.6,28.6C85.6,28.6,85.6,28.6,85.6,28.6z"></path><path d="M85.2,73.8c-0.8,0-1.6,0-2.4,0c-2.7,0-5.3,0.1-8,0.1c-2.2,0-4.4,0.1-6.6,0.1c-3.4,0-6.8,0.1-10.2,0.1c-2.4,0-4.8,0-7.2,0  c-3.8,0-7.7,0-11.5,0c-1.5,0-3.1,0-4.6,0c-2.8,0-5.6-0.1-8.3-0.1c-2.7,0-5.5-0.1-8.2-0.1c-1.2,0-2.3-0.1-3.5-0.1c0.8,0,1.5,0,2.3,0  c1.7,0,3.4,0,5.2,0c2.6,0,5.2-0.1,7.7-0.1c2.9,0,5.8-0.1,8.7-0.1c2.3,0,4.5,0,6.8-0.1c2.2,0,4.4,0,6.7,0c2.6,0,5.2,0,7.8,0  c2.7,0,5.4,0.1,8.2,0.1c2.3,0,4.6,0,6.9,0.1c2.3,0,4.6,0.1,6.9,0.1C82.8,73.7,84,73.7,85.2,73.8C85.2,73.7,85.2,73.8,85.2,73.8z"></path><path d="M85.1,27.3c-0.7,0-1.4,0-2.1,0c-2.8,0-5.6,0.1-8.3,0.1c-2.7,0-5.4,0.1-8.1,0.1c-4.4,0-8.7,0.1-13.1,0.1c-1.5,0-3,0-4.5,0  c-4.4,0-8.8,0-13.2-0.1c-2.5,0-5,0-7.5-0.1c-3.4,0-6.7-0.1-10.1-0.1c-1,0-2-0.1-2.9-0.1c1.2,0,2.5,0,3.7,0c1.3,0,2.7,0,4,0  c2,0,3.9,0,5.9-0.1c3.2,0,6.4-0.1,9.6-0.1c4,0,7.9,0,11.9-0.1c2.2,0,4.5,0,6.7,0c3.3,0,6.6,0.1,9.9,0.1c2.5,0,5,0.1,7.4,0.1  c3,0,6,0.1,9,0.1C83.9,27.2,84.5,27.2,85.1,27.3C85.1,27.2,85.1,27.2,85.1,27.3z"></path><path d="M15.4,75.1c1.4,0,2.7,0,4.1,0c1.3,0,2.6,0,3.9,0c2.7,0,5.4-0.1,8.2-0.1c3.6,0,7.1-0.1,10.7-0.1c4.2,0,8.4,0,12.6,0  c2.9,0,5.8,0,8.7,0.1c1.2,0,2.5,0,3.7,0c1.8,0,3.6,0,5.4,0.1c1.9,0,3.7,0.1,5.6,0.1c1.3,0,2.7,0,4,0c0.7,0,1.4,0,2.1,0  c-0.9,0-1.8,0-2.7,0.1c-2.2,0-4.3,0.1-6.5,0.1c-2.3,0-4.6,0.1-6.9,0.1c-1,0-2,0-3.1,0c-2.7,0-5.4,0-8.1,0.1c-2.6,0-5.3,0-7.9,0  c-1.8,0-3.6,0-5.4,0c-2.4,0-4.8,0-7.2,0c-3,0-6-0.1-8.9-0.1c-2.8,0-5.7-0.1-8.5-0.1C18,75.2,16.7,75.2,15.4,75.1  C15.4,75.1,15.4,75.1,15.4,75.1z"></path><path d="M84.2,25.9c-0.8,0-1.6,0-2.4,0c-2.2,0-4.5,0.1-6.7,0.1c-3,0-6.1,0.1-9.1,0.1c-5,0-10,0.1-14.9,0.1c-3.8,0-7.6,0-11.4,0  c-2.8,0-5.6-0.1-8.4-0.1c-0.8,0-1.6,0-2.5,0c-2.8,0-5.6-0.1-8.4-0.1c-1.5,0-2.9-0.1-4.4-0.1c0.7,0,1.5,0,2.2,0c1.8,0,3.6,0,5.5,0  c2.6,0,5.2-0.1,7.8-0.1c2.2,0,4.3,0,6.5-0.1c3.3,0,6.6,0,9.9,0c3.2,0,6.4,0,9.6,0c2.1,0,4.2,0,6.3,0c3.1,0,6.1,0.1,9.2,0.1  c3.6,0,7.3,0.1,10.9,0.1C83.9,25.9,84,25.9,84.2,25.9C84.2,25.9,84.2,25.9,84.2,25.9z"></path><path d="M83.6,76.5c-0.8,0-1.6,0-2.4,0.1c-2.7,0-5.4,0.1-8.1,0.1c-2.9,0-5.9,0-8.8,0.1c-6.5,0.1-13,0.1-19.6,0.1c-2,0-4.1,0-6.1,0  c-1.9,0-3.9,0-5.8,0c-2.2,0-4.4,0-6.6-0.1c-2,0-4,0-6-0.1c-1.2,0-2.5-0.1-3.7-0.1c0.8,0,1.7,0,2.5,0c1.1,0,2.2,0,3.3,0  c1.8,0,3.6-0.1,5.4-0.1c1.8,0,3.7,0,5.5,0c3.4,0,6.7-0.1,10.1-0.1c3.8,0,7.6,0,11.4,0c3.5,0,7.1,0,10.6,0.1c2.9,0,5.7,0.1,8.6,0.1  c3.1,0,6.3,0.1,9.4,0.1C83.5,76.5,83.5,76.5,83.6,76.5z"></path><path d="M16.7,24.5c0.9,0,1.9,0,2.8,0c2.1,0,4.1,0,6.2,0c2.4,0,4.7,0,7.1-0.1c3.1,0,6.2-0.1,9.3-0.1c4.8,0,9.6,0,14.4,0  c2.4,0,4.7,0,7.1,0c3.2,0,6.3,0.1,9.5,0.1c3.2,0,6.3,0.1,9.5,0.1c0.1,0,0.1,0,0.2,0c-0.6,0-1.3,0-1.9,0c-3.1,0-6.2,0.1-9.3,0.1  c-2.5,0-5,0.1-7.6,0.1c-4.1,0-8.3,0.1-12.4,0.1c-4,0-8.1,0-12.1,0c-2.8,0-5.6-0.1-8.4-0.1c-2.9,0-5.8-0.1-8.7-0.1  C20.5,24.6,18.6,24.6,16.7,24.5C16.7,24.5,16.7,24.5,16.7,24.5z"></path><path d="M17.7,77.8c0.9,0,1.8,0,2.6,0c1.9,0,3.7,0,5.6,0c3.4,0,6.9,0,10.3-0.1c6.4-0.1,12.7-0.1,19.1-0.1c2.5,0,5,0,7.6,0  c2.6,0,5.2,0,7.8,0.1c3,0,6,0.1,9.1,0.1c0.9,0,1.7,0,2.6,0c-1.1,0-2.2,0.1-3.4,0.1c-1.9,0-3.8,0-5.7,0.1c-2.2,0-4.4,0.1-6.7,0.1  c-1.5,0-3.1,0-4.6,0c-2,0-4.1,0-6.1,0c-2.9,0-5.7,0-8.6,0c-1.5,0-3.1,0-4.6,0c-2.6,0-5.1,0-7.7-0.1c-2.5,0-4.9,0-7.4-0.1  c-1.7,0-3.3,0-5,0C21,77.9,19.4,77.9,17.7,77.8C17.8,77.9,17.7,77.9,17.7,77.8z"></path><path d="M17.9,23.1c0.8,0,1.6,0,2.5,0c1.2,0,2.3,0,3.5,0c2.3,0,4.5-0.1,6.8-0.1c2.3,0,4.5,0,6.8,0c3.5,0,7,0,10.5-0.1  c3,0,6.1,0,9.1,0c1.4,0,2.9,0,4.3,0c3.4,0,6.9,0.1,10.3,0.1c2.6,0,5.3,0.1,7.9,0.1c0.8,0,1.6,0,2.5,0c-1.8,0-3.6,0.1-5.4,0.1  c-2.3,0-4.6,0-7,0.1c-4.1,0-8.2,0.1-12.4,0.1c-4.5,0-9,0-13.4,0c-3.4,0-6.8,0-10.2-0.1c-2.7,0-5.3-0.1-8-0.1c-1.4,0-2.7,0-4.1,0  C20.4,23.2,19.2,23.2,17.9,23.1C17.9,23.1,17.9,23.1,17.9,23.1z"></path><path d="M18.7,79.2c0.9,0,1.7,0,2.6,0c2.1,0,4.3,0,6.4,0c3.8,0,7.5-0.1,11.3-0.1c5.3,0,10.6,0,15.9,0c1.7,0,3.5,0,5.2,0  c2.4,0,4.7,0,7.1,0.1c2.4,0,4.8,0.1,7.2,0.1c2.1,0,4.3,0,6.4,0c0.1,0,0.2,0,0.3,0c-0.9,0-1.7,0-2.6,0c-3.5,0-7,0.1-10.5,0.1  c-3.6,0-7.1,0.1-10.7,0.1c-4.5,0-9,0-13.4,0c-2.7,0-5.4,0-8.1,0c-3.7,0-7.4-0.1-11.1-0.1C22.6,79.3,20.7,79.3,18.7,79.2  C18.7,79.2,18.7,79.2,18.7,79.2z"></path><path d="M80.8,21.8c-1.1,0-2.2,0-3.2,0.1c-3.2,0-6.4,0.1-9.7,0.1c-3.6,0-7.2,0.1-10.8,0.1c-4.5,0-8.9,0-13.4,0c-2.7,0-5.5,0-8.2,0  c-3.1,0-6.2,0-9.3-0.1c-2.3,0-4.6-0.1-6.9-0.1c0.8,0,1.7,0,2.5,0c2.2,0,4.4,0,6.6,0c3.1,0,6.2-0.1,9.3-0.1c1.3,0,2.6,0,4,0  c2.7,0,5.4,0,8.2,0c2.5,0,5,0,7.4,0c3.5,0,6.9,0,10.4,0.1c4.3,0,8.6,0.1,12.9,0.1C80.6,21.8,80.7,21.8,80.8,21.8  C80.8,21.8,80.8,21.8,80.8,21.8z"></path><path d="M20,80.6c1.7,0,3.4,0,5.1,0c1.6,0,3.2,0,4.8,0c3.3,0,6.7-0.1,10-0.1c4.5,0,9,0,13.4,0c4.5,0,8.9,0,13.4,0.1  c3.4,0,6.9,0.1,10.3,0.1c0.9,0,1.8,0,2.7,0.1c-0.9,0-1.8,0-2.8,0c-2.9,0-5.8,0-8.8,0.1c-7.9,0.1-15.8,0.1-23.7,0.1  c-2.8,0-5.7,0-8.5,0c-3.3,0-6.6-0.1-9.9-0.1c-2,0-4-0.1-6-0.1C20.1,80.6,20,80.6,20,80.6z"></path><path d="M79.4,20.4c-0.8,0-1.6,0-2.4,0c-2.4,0-4.8,0.1-7.2,0.1c-1.6,0-3.2,0-4.8,0c-6.9,0.1-13.9,0.1-20.8,0.1c-2.8,0-5.5,0-8.3,0  c-3.1,0-6.2-0.1-9.3-0.1c-2,0-4-0.1-6-0.1c0.1,0,0.3,0,0.4,0c2.4,0,4.9,0,7.3,0c1,0,1.9,0,2.9,0c6.9,0,13.8-0.1,20.6-0.1  c4.5,0,9,0,13.4,0c3.9,0,7.8,0.1,11.7,0.1C77.8,20.4,78.6,20.4,79.4,20.4C79.4,20.4,79.4,20.4,79.4,20.4z"></path><path d="M21.4,82c1.1,0,2.1,0,3.2,0c2.4,0,4.7,0,7.1,0c2.7,0,5.5-0.1,8.2-0.1c1.6,0,3.2,0,4.8,0c2.8,0,5.6,0,8.3,0  c4.6,0,9.1,0,13.7,0.1c2.8,0,5.7,0,8.5,0.1c1,0,2,0,3,0.1c-1.1,0-2.2,0-3.4,0.1c-3.1,0-6.3,0.1-9.4,0.1c-2.6,0-5.3,0-7.9,0.1  c-0.9,0-1.9,0-2.8,0c-4.1,0-8.1,0-12.2,0c-4.6,0-9.1,0-13.7-0.1c-1.9,0-3.9-0.1-5.8-0.1C22.6,82,22,82,21.4,82  C21.4,82,21.4,82,21.4,82z"></path><path d="M22.1,19c18.5-0.2,37-0.2,55.6,0c-0.7,0-1.4,0-2.1,0c-2.6,0-5.1,0.1-7.7,0.1c-1.6,0-3.3,0-4.9,0c-2.2,0-4.5,0-6.7,0  c-3.6,0-7.2,0-10.8,0c-1.9,0-3.8,0-5.7,0c-2.8,0-5.7,0-8.5-0.1c-1.6,0-3.2,0-4.7,0C25,19.1,23.5,19.1,22.1,19z"></path><path d="M23.2,83.3c17.9-0.2,35.8-0.2,53.6,0c-1,0-1.9,0-2.9,0c-2.7,0-5.4,0.1-8.1,0.1c-2.6,0-5.1,0-7.7,0c-4.5,0-9,0-13.5,0  c-1.9,0-3.8,0-5.7,0c-3.7,0-7.5,0-11.2-0.1C26.2,83.4,24.7,83.4,23.2,83.3z"></path><path d="M23.6,17.7c17.5-0.2,35.1-0.2,52.6,0c-0.8,0-1.6,0-2.5,0c-1.4,0-2.9,0-4.3,0.1c-2.4,0-4.8,0-7.2,0c-2.1,0-4.1,0-6.2,0  c-3.8,0-7.6,0-11.3,0c-4.3,0-8.5,0-12.8-0.1C29.2,17.8,26.4,17.7,23.6,17.7z"></path><path d="M24.8,84.7c16.7-0.2,33.4-0.2,50.1,0c-1.1,0-2.2,0-3.4,0c-4.4,0-8.8,0.1-13.1,0.1c-4.9,0-9.7,0-14.6,0c-3.3,0-6.5,0-9.8,0  C30.9,84.8,27.9,84.8,24.8,84.7z"></path><path d="M25.4,16.3c3.8-0.1,44.5-0.1,48.8,0c-0.9,0-1.9,0-2.8,0c-4.6,0.1-9.2,0.1-13.8,0.1c-4.2,0-8.5,0-12.7,0c-3.3,0-6.6,0-9.8,0  c-1.6,0-3.2,0-4.7,0c-1.5,0-3.1-0.1-4.6-0.1C25.6,16.3,25.6,16.3,25.4,16.3z"></path><path d="M26.9,86.1c4-0.1,41.1-0.1,46,0c-1.1,0-2.2,0-3.3,0c-4,0-8.1,0.1-12.1,0.1c-6.1,0-12.1,0-18.2,0c-2.2,0-4.5,0-6.7,0  C30.6,86.1,28.8,86.1,26.9,86.1z"></path><path d="M72.1,14.9c-0.7,0-1.5,0-2.2,0c-2.1,0-4.1,0.1-6.2,0.1c-2.3,0-4.6,0-7,0c-6.2,0-12.4,0-18.6,0c-1.7,0-3.4,0-5.1,0  c-1.8,0-3.7-0.1-5.5-0.1C29.3,14.8,69.5,14.8,72.1,14.9z"></path><path d="M70.5,87.4c-5.3,0.2-33.2,0.2-41.7,0C42.8,87.3,56.7,87.3,70.5,87.4z"></path><path d="M70,13.6c-13.3,0.2-26.6,0.2-39.9,0C31.2,13.5,68,13.5,70,13.6z"></path><path d="M31.6,88.8c2.7-0.1,33.6-0.1,36.4,0c-0.9,0-1.7,0-2.6,0c-1.7,0-3.4,0-5.1,0.1c-1.9,0-3.8,0-5.7,0c-4.4,0-8.8,0-13.2,0  c-2.1,0-4.2,0-6.3-0.1C34.1,88.8,32.8,88.8,31.6,88.8z"></path><path d="M32.6,12.2c11.5-0.1,23.1-0.1,34.6,0c-3.8,0-7.7,0.1-11.5,0.1c-3.8,0-7.7,0-11.5,0C40.3,12.3,36.5,12.2,32.6,12.2z"></path><path d="M34.4,90.2c10.1-0.1,20.2-0.1,30.3,0C54.6,90.3,44.5,90.3,34.4,90.2z"></path><path d="M36.4,10.8c9.2,0,18.3,0,27.5,0C54.8,10.9,45.6,10.9,36.4,10.8z"></path><path d="M39.2,91.5c7.1,0,14.2,0,21.4,0C53.4,91.6,46.3,91.6,39.2,91.5z"></path><path d="M41.2,9.4c5.8,0,11.5,0,17.3,0c0,0,0,0,0,0C52.7,9.5,46.9,9.5,41.2,9.4C41.2,9.5,41.2,9.5,41.2,9.4z"></path><path d="M86.3,28.6C86.3,28.6,86.3,28.6,86.3,28.6C86.3,28.6,86.3,28.6,86.3,28.6C86.3,28.6,86.3,28.6,86.3,28.6z"></path><polygon points="83.6,24.5 83.5,24.5 83.5,24.5 "></polygon><path d="M65.2,90.2C65.1,90.2,65.1,90.2,65.2,90.2C65.1,90.2,65.1,90.2,65.2,90.2C65.1,90.2,65.1,90.2,65.2,90.2  C65.1,90.2,65.1,90.2,65.2,90.2z"></path><polygon points="60.3,9.5 60.3,9.5 60.3,9.5 "></polygon><polygon points="26.2,86.1 26.2,86.1 26.2,86.1 "></polygon><polygon points="74.7,16.3 74.7,16.3 74.7,16.3 "></polygon><polygon points="85.6,73.7 85.6,73.7 85.6,73.8 "></polygon><polygon points="39.9,9.5 39.9,9.5 39.9,9.5 "></polygon></g>
</svg>
</g><g opacity="1" transform="rotate(0 65.26410000000001 106.67350000000002)">
<svg width="169.4718" height="14.9749" x="65.26410000000001" y="106.67350000000002" version="1.1" preserveAspectRatio="none" viewBox="4.56 -29.68 338.16 29.88">
  <g transform="matrix(1 0 0 1 0 0)" class="text"><path d="M7.52-2.56L24.36-2.56L24.36 0L4.56 0L4.56-28L23.76-28L23.76-25.44L7.52-25.44L7.52-15.48L22-15.48L22-12.96L7.52-12.96L7.52-2.56Z M48.76-29.68L51.60-29.68L51.60 0L48.88 0L48.88-4.16Q47.60-2.04 45.50-0.92Q43.40 0.20 40.76 0.20L40.76 0.20Q37.80 0.20 35.40-1.16Q33-2.52 31.64-4.96Q30.28-7.40 30.28-10.52L30.28-10.52Q30.28-13.64 31.64-16.08Q33-18.52 35.40-19.86Q37.80-21.20 40.76-21.20L40.76-21.20Q43.32-21.20 45.38-20.14Q47.44-19.08 48.76-17.04L48.76-17.04L48.76-29.68ZM41-2.32Q43.20-2.32 44.98-3.34Q46.76-4.36 47.78-6.24Q48.80-8.12 48.80-10.52L48.80-10.52Q48.80-12.92 47.78-14.80Q46.76-16.68 44.98-17.70Q43.20-18.72 41-18.72L41-18.72Q38.76-18.72 36.98-17.70Q35.20-16.68 34.18-14.80Q33.16-12.92 33.16-10.52L33.16-10.52Q33.16-8.12 34.18-6.24Q35.20-4.36 36.98-3.34Q38.76-2.32 41-2.32L41-2.32Z M61.52 0L61.52-21.04L64.36-21.04L64.36 0L61.52 0ZM62.96-25.64Q62.08-25.64 61.48-26.24Q60.88-26.84 60.88-27.68L60.88-27.68Q60.88-28.48 61.48-29.08Q62.08-29.68 62.96-29.68L62.96-29.68Q63.84-29.68 64.44-29.10Q65.04-28.52 65.04-27.72L65.04-27.72Q65.04-26.84 64.44-26.24Q63.84-25.64 62.96-25.64L62.96-25.64Z M84.36-3.32L85.36-1.28Q84.56-0.56 83.38-0.18Q82.20 0.20 80.92 0.20L80.92 0.20Q77.96 0.20 76.36-1.40Q74.76-3 74.76-5.92L74.76-5.92L74.76-18.64L71.00-18.64L71.00-21.04L74.76-21.04L74.76-25.64L77.60-25.64L77.60-21.04L84-21.04L84-18.64L77.60-18.64L77.60-6.08Q77.60-4.20 78.54-3.22Q79.48-2.24 81.24-2.24L81.24-2.24Q82.12-2.24 82.94-2.52Q83.76-2.80 84.36-3.32L84.36-3.32Z M100.36 0.20Q97.32 0.20 94.88-1.18Q92.44-2.56 91.04-5Q89.64-7.44 89.64-10.52L89.64-10.52Q89.64-13.60 91.04-16.04Q92.44-18.48 94.88-19.84Q97.32-21.20 100.36-21.20L100.36-21.20Q103.40-21.20 105.84-19.84Q108.28-18.48 109.66-16.04Q111.04-13.60 111.04-10.52L111.04-10.52Q111.04-7.44 109.66-5Q108.28-2.56 105.84-1.18Q103.40 0.20 100.36 0.20L100.36 0.20ZM100.36-2.32Q102.60-2.32 104.38-3.34Q106.16-4.36 107.16-6.24Q108.16-8.12 108.16-10.52L108.16-10.52Q108.16-12.92 107.16-14.80Q106.16-16.68 104.38-17.70Q102.60-18.72 100.36-18.72L100.36-18.72Q98.12-18.72 96.34-17.70Q94.56-16.68 93.54-14.80Q92.52-12.92 92.52-10.52L92.52-10.52Q92.52-8.12 93.54-6.24Q94.56-4.36 96.34-3.34Q98.12-2.32 100.36-2.32L100.36-2.32Z M121.56-16.92Q122.56-19.04 124.54-20.12Q126.52-21.20 129.44-21.20L129.44-21.20L129.44-18.44L128.76-18.48Q125.44-18.48 123.56-16.44Q121.68-14.40 121.68-10.72L121.68-10.72L121.68 0L118.84 0L118.84-21.04L121.56-21.04L121.56-16.92Z M160.44-28Q165.80-28 168.84-25.44Q171.88-22.88 171.88-18.40L171.88-18.40Q171.88-13.92 168.84-11.38Q165.80-8.84 160.44-8.84L160.44-8.84L152.92-8.84L152.92 0L149.96 0L149.96-28L160.44-28ZM160.36-11.44Q164.52-11.44 166.72-13.26Q168.92-15.08 168.92-18.40L168.92-18.40Q168.92-21.80 166.72-23.62Q164.52-25.44 160.36-25.44L160.36-25.44L152.92-25.44L152.92-11.44L160.36-11.44Z M181.88-16.92Q182.88-19.04 184.86-20.12Q186.84-21.20 189.76-21.20L189.76-21.20L189.76-18.44L189.08-18.48Q185.76-18.48 183.88-16.44Q182-14.40 182-10.72L182-10.72L182 0L179.16 0L179.16-21.04L181.88-21.04L181.88-16.92Z M205.28 0.20Q202.24 0.20 199.80-1.18Q197.36-2.56 195.96-5Q194.56-7.44 194.56-10.52L194.56-10.52Q194.56-13.60 195.96-16.04Q197.36-18.48 199.80-19.84Q202.24-21.20 205.28-21.20L205.28-21.20Q208.32-21.20 210.76-19.84Q213.20-18.48 214.58-16.04Q215.96-13.60 215.96-10.52L215.96-10.52Q215.96-7.44 214.58-5Q213.20-2.56 210.76-1.18Q208.32 0.20 205.28 0.20L205.28 0.20ZM205.28-2.32Q207.52-2.32 209.30-3.34Q211.08-4.36 212.08-6.24Q213.08-8.12 213.08-10.52L213.08-10.52Q213.08-12.92 212.08-14.80Q211.08-16.68 209.30-17.70Q207.52-18.72 205.28-18.72L205.28-18.72Q203.04-18.72 201.26-17.70Q199.48-16.68 198.46-14.80Q197.44-12.92 197.44-10.52L197.44-10.52Q197.44-8.12 198.46-6.24Q199.48-4.36 201.26-3.34Q203.04-2.32 205.28-2.32L205.28-2.32Z M240.12-29.68L242.96-29.68L242.96 0L240.24 0L240.24-4.16Q238.96-2.04 236.86-0.92Q234.76 0.20 232.12 0.20L232.12 0.20Q229.16 0.20 226.76-1.16Q224.36-2.52 223.00-4.96Q221.64-7.40 221.64-10.52L221.64-10.52Q221.64-13.64 223.00-16.08Q224.36-18.52 226.76-19.86Q229.16-21.20 232.12-21.20L232.12-21.20Q234.68-21.20 236.74-20.14Q238.80-19.08 240.12-17.04L240.12-17.04L240.12-29.68ZM232.36-2.32Q234.56-2.32 236.34-3.34Q238.12-4.36 239.14-6.24Q240.16-8.12 240.16-10.52L240.16-10.52Q240.16-12.92 239.14-14.80Q238.12-16.68 236.34-17.70Q234.56-18.72 232.36-18.72L232.36-18.72Q230.12-18.72 228.34-17.70Q226.56-16.68 225.54-14.80Q224.52-12.92 224.52-10.52L224.52-10.52Q224.52-8.12 225.54-6.24Q226.56-4.36 228.34-3.34Q230.12-2.32 232.36-2.32L232.36-2.32Z M269-21.04L271.84-21.04L271.84 0L269.12 0L269.12-3.84Q268-1.92 266.04-0.86Q264.08 0.20 261.56 0.20L261.56 0.20Q257.44 0.20 255.06-2.10Q252.68-4.40 252.68-8.84L252.68-8.84L252.68-21.04L255.52-21.04L255.52-9.12Q255.52-5.80 257.16-4.08Q258.80-2.36 261.84-2.36L261.84-2.36Q265.16-2.36 267.08-4.38Q269-6.40 269-10L269-10L269-21.04Z M290.52 0.20Q287.40 0.20 284.94-1.16Q282.48-2.52 281.08-4.98Q279.68-7.44 279.68-10.52L279.68-10.52Q279.68-13.60 281.08-16.04Q282.48-18.48 284.94-19.84Q287.40-21.20 290.52-21.20L290.52-21.20Q293.24-21.20 295.38-20.14Q297.52-19.08 298.76-17.04L298.76-17.04L296.64-15.60Q295.60-17.16 294-17.94Q292.40-18.72 290.52-18.72L290.52-18.72Q288.24-18.72 286.42-17.70Q284.60-16.68 283.58-14.80Q282.56-12.92 282.56-10.52L282.56-10.52Q282.56-8.08 283.58-6.22Q284.60-4.36 286.42-3.34Q288.24-2.32 290.52-2.32L290.52-2.32Q292.40-2.32 294-3.08Q295.60-3.84 296.64-5.40L296.64-5.40L298.76-3.96Q297.52-1.92 295.36-0.86Q293.20 0.20 290.52 0.20L290.52 0.20Z M324.32-10.52L324.28-9.64L306.68-9.64Q306.92-6.36 309.20-4.34Q311.48-2.32 314.96-2.32L314.96-2.32Q316.92-2.32 318.56-3.02Q320.20-3.72 321.40-5.08L321.40-5.08L323.00-3.24Q321.60-1.56 319.50-0.68Q317.40 0.20 314.88 0.20L314.88 0.20Q311.64 0.20 309.14-1.18Q306.64-2.56 305.24-5Q303.84-7.44 303.84-10.52L303.84-10.52Q303.84-13.60 305.18-16.04Q306.52-18.48 308.86-19.84Q311.20-21.20 314.12-21.20L314.12-21.20Q317.04-21.20 319.36-19.84Q321.68-18.48 323.00-16.06Q324.32-13.64 324.32-10.52L324.32-10.52ZM314.12-18.76Q311.08-18.76 309.02-16.82Q306.96-14.88 306.68-11.76L306.68-11.76L321.60-11.76Q321.32-14.88 319.26-16.82Q317.20-18.76 314.12-18.76L314.12-18.76Z M334.84-16.92Q335.84-19.04 337.82-20.12Q339.80-21.20 342.72-21.20L342.72-21.20L342.72-18.44L342.04-18.48Q338.72-18.48 336.84-16.44Q334.96-14.40 334.96-10.72L334.96-10.72L334.96 0L332.12 0L332.12-21.04L334.84-21.04L334.84-16.92Z"></path></g>
</svg>
</g><g opacity="1" transform="rotate(0 0 53.191900000000004)">
<svg width="300" height="35.6544" x="0" y="53.191900000000004" version="1.1" preserveAspectRatio="none" viewBox="4.52 -30.4 258.48 30.72">
  <g transform="matrix(1 0 0 1 0 0)" class="aD6z1nYkhcolor"><path d="M6.52-15.60L6.44-14.20L6.56-14.56L20.60-28.40L23.12-28.40L11.36-16.76L24.44 0L21.96 0L9.92-15.52L6.48-12.24L6.52 0L4.52 0L4.52-28.40L6.52-28.40L6.52-15.60Z M43.08-15.64L44.76-15.64L44.76 0L42.88 0L42.88-3.32Q41.96-1.80 40.08-0.74Q38.20 0.32 36 0.32L36 0.32Q33.76 0.32 31.94-0.70Q30.12-1.72 29.06-3.58Q28-5.44 28-7.84L28-7.84Q28-10.40 29.10-12.26Q30.20-14.12 32.14-15.12Q34.08-16.12 36.52-16.12L36.52-16.12Q38.44-16.12 40.20-15.04Q41.96-13.96 42.88-12.24L42.88-12.24L43.08-15.64ZM36.40-1.28Q39.04-1.28 40.88-2.92Q42.72-4.56 42.88-7.12L42.88-7.12L42.88-9.36Q42.40-11.56 40.56-13.04Q38.72-14.52 36.36-14.52L36.36-14.52Q34.56-14.52 33.08-13.70Q31.60-12.88 30.74-11.38Q29.88-9.88 29.88-7.92L29.88-7.92Q29.88-6.12 30.76-4.60Q31.64-3.08 33.14-2.18Q34.64-1.28 36.40-1.28L36.40-1.28Z M55.56 0.32Q54.04 0.32 52.62-0.20Q51.20-0.72 50.32-1.80L50.32-1.80L51.20-3.04Q52-2.20 53.12-1.70Q54.24-1.20 55.44-1.20L55.44-1.20Q56.96-1.20 58-1.90Q59.04-2.60 59.04-4.08L59.04-4.08Q59.04-5.12 58.48-5.74Q57.92-6.36 57.20-6.66Q56.48-6.96 54.88-7.48L54.88-7.48Q53-8.12 51.98-9.10Q50.96-10.08 50.96-11.72L50.96-11.72Q50.96-13.64 52.30-14.82Q53.64-16 55.72-16L55.72-16Q58.60-16 60.40-14.24L60.40-14.24L59.56-12.92Q58.96-13.72 57.98-14.08Q57-14.44 56-14.48L56-14.48Q54.80-14.48 53.82-13.82Q52.84-13.16 52.84-11.96L52.84-11.96Q52.84-10.72 53.72-10.10Q54.60-9.48 56.40-8.84L56.40-8.84Q58.60-8.12 59.76-7.22Q60.92-6.32 60.92-4.48L60.92-4.48Q60.92-2.32 59.54-1Q58.16 0.32 55.56 0.32L55.56 0.32Z M75-16.08Q77.16-16.08 78.52-14.78Q79.88-13.48 79.96-11.40L79.96-11.40L79.96 0L78.04 0L78.04-10.88Q77.96-12.44 77.04-13.42Q76.12-14.40 74.40-14.44L74.40-14.44Q72.84-14.44 71.48-13.64Q70.12-12.84 69.30-11.46Q68.48-10.08 68.48-8.40L68.48-8.40L68.48 0L66.60 0L66.60-30.40L68.44-30.40L68.44-12.40Q69.32-14 71.08-15.04Q72.84-16.08 75-16.08L75-16.08Z M87.08-15.64L88.96-15.64L88.96 0L87.08 0L87.08-15.64ZM86.68-21.40Q86.68-21.96 87.10-22.34Q87.52-22.72 88.08-22.72L88.08-22.72Q88.64-22.72 89.04-22.34Q89.44-21.96 89.44-21.40L89.44-21.40Q89.44-20.80 89.04-20.42Q88.64-20.04 88.08-20.04L88.08-20.04Q87.52-20.04 87.10-20.44Q86.68-20.84 86.68-21.40L86.68-21.40Z M104.48-16.08Q106.64-16.08 108-14.78Q109.36-13.48 109.44-11.40L109.44-11.40L109.44 0L107.52 0L107.52-10.88Q107.44-12.44 106.52-13.42Q105.60-14.40 103.88-14.44L103.88-14.44Q102.28-14.44 100.94-13.68Q99.60-12.92 98.78-11.54Q97.96-10.16 97.96-8.40L97.96-8.40L97.96 0L96.08 0L96.08-15.64L97.72-15.64L97.88-12.16Q98.64-13.96 100.46-15.02Q102.28-16.08 104.48-16.08L104.48-16.08Z M130.12-15.64L131.80-15.64L131.80 0L129.92 0L129.92-3.32Q129-1.80 127.12-0.74Q125.24 0.32 123.04 0.32L123.04 0.32Q120.80 0.32 118.98-0.70Q117.16-1.72 116.10-3.58Q115.04-5.44 115.04-7.84L115.04-7.84Q115.04-10.40 116.14-12.26Q117.24-14.12 119.18-15.12Q121.12-16.12 123.56-16.12L123.56-16.12Q125.48-16.12 127.24-15.04Q129-13.96 129.92-12.24L129.92-12.24L130.12-15.64ZM123.44-1.28Q126.08-1.28 127.92-2.92Q129.76-4.56 129.92-7.12L129.92-7.12L129.92-9.36Q129.44-11.56 127.60-13.04Q125.76-14.52 123.40-14.52L123.40-14.52Q121.60-14.52 120.12-13.70Q118.64-12.88 117.78-11.38Q116.92-9.88 116.92-7.92L116.92-7.92Q116.92-6.12 117.80-4.60Q118.68-3.08 120.18-2.18Q121.68-1.28 123.44-1.28L123.44-1.28Z M154.16-15.60L154.08-14.20L154.20-14.56L168.24-28.40L170.76-28.40L159-16.76L172.08 0L169.60 0L157.56-15.52L154.12-12.24L154.16 0L152.16 0L152.16-28.40L154.16-28.40L154.16-15.60Z M184.04-1.32Q186.56-1.32 188.60-3.04L188.60-3.04L189.56-1.68Q188.40-0.76 186.94-0.22Q185.48 0.32 184 0.32L184 0.32Q181.60 0.32 179.70-0.76Q177.80-1.84 176.74-3.70Q175.68-5.56 175.68-7.88L175.68-7.88Q175.68-10.12 176.80-12.02Q177.92-13.92 179.84-15.04Q181.76-16.16 184.04-16.16L184.04-16.16Q186.76-16.16 188.68-14.56Q190.60-12.96 191.48-10.24L191.48-10.24L178.12-5.08Q178.88-3.40 180.46-2.36Q182.04-1.32 184.04-1.32L184.04-1.32ZM183.92-14.56Q182.16-14.56 180.68-13.68Q179.20-12.80 178.36-11.30Q177.52-9.80 177.52-7.96L177.52-7.96Q177.52-7.12 177.68-6.48L177.68-6.48L189.20-11Q188.44-12.60 187.08-13.58Q185.72-14.56 183.92-14.56L183.92-14.56Z M200.36 0.32Q198.84 0.32 197.42-0.20Q196-0.72 195.12-1.80L195.12-1.80L196-3.04Q196.80-2.20 197.92-1.70Q199.04-1.20 200.24-1.20L200.24-1.20Q201.76-1.20 202.80-1.90Q203.84-2.60 203.84-4.08L203.84-4.08Q203.84-5.12 203.28-5.74Q202.72-6.36 202-6.66Q201.28-6.96 199.68-7.48L199.68-7.48Q197.80-8.12 196.78-9.10Q195.76-10.08 195.76-11.72L195.76-11.72Q195.76-13.64 197.10-14.82Q198.44-16 200.52-16L200.52-16Q203.40-16 205.20-14.24L205.20-14.24L204.36-12.92Q203.76-13.72 202.78-14.08Q201.80-14.44 200.80-14.48L200.80-14.48Q199.60-14.48 198.62-13.82Q197.64-13.16 197.64-11.96L197.64-11.96Q197.64-10.72 198.52-10.10Q199.40-9.48 201.20-8.84L201.20-8.84Q203.40-8.12 204.56-7.22Q205.72-6.32 205.72-4.48L205.72-4.48Q205.72-2.32 204.34-1Q202.96 0.32 200.36 0.32L200.36 0.32Z M215.08 0.32Q213.56 0.32 212.14-0.20Q210.72-0.72 209.84-1.80L209.84-1.80L210.72-3.04Q211.52-2.20 212.64-1.70Q213.76-1.20 214.96-1.20L214.96-1.20Q216.48-1.20 217.52-1.90Q218.56-2.60 218.56-4.08L218.56-4.08Q218.56-5.12 218-5.74Q217.44-6.36 216.72-6.66Q216-6.96 214.40-7.48L214.40-7.48Q212.52-8.12 211.50-9.10Q210.48-10.08 210.48-11.72L210.48-11.72Q210.48-13.64 211.82-14.82Q213.16-16 215.24-16L215.24-16Q218.12-16 219.92-14.24L219.92-14.24L219.08-12.92Q218.48-13.72 217.50-14.08Q216.52-14.44 215.52-14.48L215.52-14.48Q214.32-14.48 213.34-13.82Q212.36-13.16 212.36-11.96L212.36-11.96Q212.36-10.72 213.24-10.10Q214.12-9.48 215.92-8.84L215.92-8.84Q218.12-8.12 219.28-7.22Q220.44-6.32 220.44-4.48L220.44-4.48Q220.44-2.32 219.06-1Q217.68 0.32 215.08 0.32L215.08 0.32Z M226.12-30.40L228-30.40L228 0L226.12 0L226.12-30.40Z M241.96-1.32Q244.48-1.32 246.52-3.04L246.52-3.04L247.48-1.68Q246.32-0.76 244.86-0.22Q243.40 0.32 241.92 0.32L241.92 0.32Q239.52 0.32 237.62-0.76Q235.72-1.84 234.66-3.70Q233.60-5.56 233.60-7.88L233.60-7.88Q233.60-10.12 234.72-12.02Q235.84-13.92 237.76-15.04Q239.68-16.16 241.96-16.16L241.96-16.16Q244.68-16.16 246.60-14.56Q248.52-12.96 249.40-10.24L249.40-10.24L236.04-5.08Q236.80-3.40 238.38-2.36Q239.96-1.32 241.96-1.32L241.96-1.32ZM241.84-14.56Q240.08-14.56 238.60-13.68Q237.12-12.80 236.28-11.30Q235.44-9.80 235.44-7.96L235.44-7.96Q235.44-7.12 235.60-6.48L235.60-6.48L247.12-11Q246.36-12.60 245-13.58Q243.64-14.56 241.84-14.56L241.84-14.56Z M256.40-11.92Q257.24-13.80 259.16-14.92Q261.08-16.04 263-16.08L263-16.08L262.92-14.24Q261.16-14.24 259.68-13.46Q258.20-12.68 257.34-11.30Q256.48-9.92 256.48-8.28L256.48-8.28L256.48 0L254.60 0L254.60-15.64L256.24-15.64L256.40-11.92Z"></path></g>
</svg>
</g></svg>